<svg width="107" height="107" viewBox="0 0 107 107" fill="none" xmlns="http://www.w3.org/2000/svg">
<path d="M107 53.5C107 83.0472 83.0472 107 53.5 107C23.9528 107 0 83.0472 0 53.5C0 23.9528 23.9528 0 53.5 0C83.0472 0 107 23.9528 107 53.5Z" fill="#FFD700"/>
<path d="M55.8134 98.2123V106.949C55.0464 106.982 54.275 107 53.5 107C52.8292 107 52.1613 106.987 51.4964 106.962V98.2123H55.8134Z" fill="#333333"/>
<path d="M35.6153 27.598C32.9942 48.1037 46.0994 48.4121 51.6499 53.6542C53.1916 32.9942 44.5576 34.8444 35.6153 27.598Z" fill="#333333"/>
<path d="M71.4103 27.598C74.0313 48.1037 60.9261 48.4121 55.3757 53.6542C53.8339 32.9942 62.4679 34.8444 71.4103 27.598Z" fill="#333333"/>
<path d="M71.4103 47.7954C74.0313 68.3012 60.9261 68.6095 55.3757 73.8516C53.8339 53.1916 62.4679 55.0418 71.4103 47.7954Z" fill="#333333"/>
<path d="M35.4953 47.7954C32.8742 68.3012 45.9794 68.6095 51.5299 73.8516C53.0716 53.1916 44.4376 55.0418 35.4953 47.7954Z" fill="#333333"/>
<path d="M71.4103 67.9928C74.0313 88.4986 60.9261 88.8069 55.3757 94.049C53.8339 73.389 62.4679 75.2392 71.4103 67.9928Z" fill="#333333"/>
<path d="M35.4953 67.9928C32.8742 88.4986 45.9794 88.8069 51.5299 94.049C53.0716 73.389 44.4376 75.2392 35.4953 67.9928Z" fill="#333333"/>
<path d="M46.8703 30.5274C47.2403 25.347 51.4443 17.6792 53.5 14.4928C55.5557 17.6792 59.7596 25.347 60.1297 30.5274C56.121 32.3775 54.1167 36.0778 53.5 37.3112C52.8833 36.0778 50.8789 32.3775 46.8703 30.5274Z" fill="#333333"/>
</svg>
